<svg xmlns="http://www.w3.org/2000/svg" width="19.781" height="16.345" viewBox="0 0 19.781 16.345"><path d="M3.567,16.345A1.147,1.147,0,0,1,2.423,15.31l-.8-8.044H1.034A1.035,1.035,0,0,1,0,6.232V4.315A1.035,1.035,0,0,1,1.034,3.281H4.308a.318.318,0,0,1,.057-.07L8.108.069a.3.3,0,0,1,.385.459L5.214,3.281h9.354L11.287.528a.3.3,0,0,1,.385-.459l3.744,3.142a.315.315,0,0,1,.056.069h3.275a1.036,1.036,0,0,1,1.034,1.035V6.233a1.035,1.035,0,0,1-1.034,1.033H18.16l-.8,8.044a1.147,1.147,0,0,1-1.145,1.035Z" transform="translate(0 0)"/></svg>