<svg xmlns="http://www.w3.org/2000/svg" width="31.823" height="31.823" viewBox="0 0 31.823 31.823" fill="#767676"><g><path d="M8.782,31.823A8.792,8.792,0,0,1,0,23.041V8.782A8.792,8.792,0,0,1,8.782,0H23.041a8.792,8.792,0,0,1,8.782,8.782V23.041a8.792,8.792,0,0,1-8.782,8.782Z"/><path d="M0,6.2a6.2,6.2,0,1,1,6.2,6.2A6.207,6.207,0,0,1,0,6.2Z" transform="translate(9.712 9.712)" fill="#fff"/><path d="M2.071,0A2.07,2.07,0,0,0,.608,3.535a2.07,2.07,0,0,0,2.927,0A2.071,2.071,0,0,0,2.071,0Z" transform="translate(22.385 5.318)" fill="#fff"/></g></svg>